# Made in Blockbench 5.0.7
mtllib cursor.mtl

o mesh
v -0.5552986719566355 0.0625 0.1612035208681596
v -0.5792163864794536 0.0625 0.10346105008620418
v -0.5552986719566355 0 0.1612035208681596
v -0.5792163864794536 0 0.10346105008620418
v -0.6707836135205464 0.0625 0.20903894991379582
v -0.6947013280433645 0.0625 0.1512964791318404
v -0.6707836135205464 0 0.20903894991379582
v -0.6947013280433645 0 0.1512964791318404
vt 0.5 0.9375
vt 0.484375 0.9375
vt 0.484375 0.921875
vt 0.5 0.921875
vt 0.5 0.890625
vt 0.5 0.90625
vt 0.484375 0.90625
vt 0.484375 0.890625
vt 0.46875 0.765625
vt 0.5 0.765625
vt 0.5 0.78125
vt 0.46875 0.78125
vt 0.28125 0.515625
vt 0.28125 0.53125
vt 0.25 0.53125
vt 0.25 0.515625
vt 0.328125 0.515625
vt 0.328125 0.53125
vt 0.296875 0.53125
vt 0.296875 0.515625
vt 0.375 0.53125
vt 0.34375 0.53125
vt 0.34375 0.515625
vt 0.375 0.515625
vn 0.9238795325112867 0 -0.3826834323650897
vn -0.9238795325112867 0 0.3826834323650897
vn 0 1 0
vn 0 -1 0
vn 0.3826834323650897 0 0.9238795325112867
vn -0.3826834323650897 0 -0.9238795325112867
usemtl m_9c70f490-2eaf-bbe1-0f79-94e6334b05ed
f 2/1/1 1/2/1 3/3/1 4/4/1
f 7/5/2 5/6/2 6/7/2 8/8/2
f 5/9/3 1/10/3 2/11/3 6/12/3
f 4/13/4 3/14/4 7/15/4 8/16/4
f 3/17/5 1/18/5 5/19/5 7/20/5
f 6/21/6 2/22/6 4/23/6 8/24/6
o mesh
v 0.24488865689038103 0.0625 -0.8467400483621206
v 0.22097094236756287 0.0625 -0.904482519144076
v 0.24488865689038103 0 -0.8467400483621206
v 0.22097094236756287 0 -0.904482519144076
v -0.7367333464028611 0.0625 -0.44013890147421275
v -0.7606510609256794 0.0625 -0.49788137225616813
v -0.7367333464028611 0 -0.44013890147421275
v -0.7606510609256794 0 -0.49788137225616813
vt 0.5 0.53125
vt 0.484375 0.53125
vt 0.484375 0.515625
vt 0.5 0.515625
vt 0.015625 0.484375
vt 0.015625 0.5
vt 0 0.5
vt 0 0.484375
vt 0 0.984375
vt 0.265625 0.984375
vt 0.265625 1
vt 0 1
vt 0.265625 0.953125
vt 0.265625 0.96875
vt 0 0.96875
vt 0 0.953125
vt 0.265625 0.921875
vt 0.265625 0.9375
vt 0 0.9375
vt 0 0.921875
vt 0.265625 0.90625
vt 0 0.90625
vt 0 0.890625
vt 0.265625 0.890625
vn 0.9238795325112867 0 -0.3826834323650897
vn -0.9238795325112867 0 0.3826834323650897
vn 0 1 0
vn 0 -1 0
vn 0.3826834323650897 0 0.9238795325112867
vn -0.3826834323650897 0 -0.9238795325112867
usemtl m_9c70f490-2eaf-bbe1-0f79-94e6334b05ed
f 10/25/7 9/26/7 11/27/7 12/28/7
f 15/29/8 13/30/8 14/31/8 16/32/8
f 13/33/9 9/34/9 10/35/9 14/36/9
f 12/37/10 11/38/10 15/39/10 16/40/10
f 11/41/11 9/42/11 13/43/11 15/44/11
f 14/45/12 10/46/12 12/47/12 16/48/12
o mesh
v 0.2110639006312437 0.0625 -0.765079863057347
v 0.1871461861084256 0.0625 -0.8228223338393024
v 0.2110639006312437 0 -0.765079863057347
v 0.1871461861084256 0 -0.8228223338393024
v -0.6550731610980877 0.0625 -0.40631414521507536
v -0.6789908756209058 0.0625 -0.46405661599703074
v -0.6550731610980877 0 -0.40631414521507536
v -0.6789908756209058 0 -0.46405661599703074
vt 0.515625 1
vt 0.5 1
vt 0.5 0.984375
vt 0.515625 0.984375
vt 0.046875 0.484375
vt 0.046875 0.5
vt 0.03125 0.5
vt 0.03125 0.484375
vt 0 0.859375
vt 0.234375 0.859375
vt 0.234375 0.875
vt 0 0.875
vt 0.234375 0.828125
vt 0.234375 0.84375
vt 0 0.84375
vt 0 0.828125
vt 0.234375 0.796875
vt 0.234375 0.8125
vt 0 0.8125
vt 0 0.796875
vt 0.234375 0.78125
vt 0 0.78125
vt 0 0.765625
vt 0.234375 0.765625
vn 0.9238795325112867 0 -0.3826834323650897
vn -0.9238795325112867 0 0.3826834323650897
vn 0 1 0
vn 0 -1 0
vn 0.3826834323650897 0 0.9238795325112867
vn -0.3826834323650897 0 -0.9238795325112867
usemtl m_9c70f490-2eaf-bbe1-0f79-94e6334b05ed
f 18/49/13 17/50/13 19/51/13 20/52/13
f 23/53/14 21/54/14 22/55/14 24/56/14
f 21/57/15 17/58/15 18/59/15 22/60/15
f 20/61/16 19/62/16 23/63/16 24/64/16
f 19/65/17 17/66/17 21/67/17 23/68/17
f 22/69/18 18/70/18 20/71/18 24/72/18
o mesh
v 0.17723914437210636 0.0625 -0.6834196777525735
v 0.15332142984928826 0.0625 -0.7411621485345289
v 0.17723914437210636 0 -0.6834196777525735
v 0.15332142984928826 0 -0.7411621485345289
v -0.5734129757933142 0.0625 -0.3724893889559381
v -0.5973306903161322 0.0625 -0.43023185973789346
v -0.5734129757933142 0 -0.3724893889559381
v -0.5973306903161322 0 -0.43023185973789346
vt 0.078125 0.5
vt 0.0625 0.5
vt 0.0625 0.484375
vt 0.078125 0.484375
vt 0.109375 0.484375
vt 0.109375 0.5
vt 0.09375 0.5
vt 0.09375 0.484375
vt 0 0.734375
vt 0.203125 0.734375
vt 0.203125 0.75
vt 0 0.75
vt 0.453125 0.859375
vt 0.453125 0.875
vt 0.25 0.875
vt 0.25 0.859375
vt 0.453125 0.828125
vt 0.453125 0.84375
vt 0.25 0.84375
vt 0.25 0.828125
vt 0.453125 0.8125
vt 0.25 0.8125
vt 0.25 0.796875
vt 0.453125 0.796875
vn 0.9238795325112867 0 -0.3826834323650897
vn -0.9238795325112867 0 0.3826834323650897
vn 0 1 0
vn 0 -1 0
vn 0.3826834323650897 0 0.9238795325112867
vn -0.3826834323650897 0 -0.9238795325112867
usemtl m_9c70f490-2eaf-bbe1-0f79-94e6334b05ed
f 26/73/19 25/74/19 27/75/19 28/76/19
f 31/77/20 29/78/20 30/79/20 32/80/20
f 29/81/21 25/82/21 26/83/21 30/84/21
f 28/85/22 27/86/22 31/87/22 32/88/22
f 27/89/23 25/90/23 29/91/23 31/92/23
f 30/93/24 26/94/24 28/95/24 32/96/24
o mesh
v 0.14341438811296903 0.0625 -0.6017594924477998
v 0.11949667359015093 0.0625 -0.6595019632297553
v 0.14341438811296903 0 -0.6017594924477998
v 0.11949667359015093 0 -0.6595019632297553
v -0.4917527904885406 0.0625 -0.3386646326968007
v -0.5156705050113587 0.0625 -0.39640710347875613
v -0.4917527904885406 0 -0.3386646326968007
v -0.5156705050113587 0 -0.39640710347875613
vt 0.140625 0.5
vt 0.125 0.5
vt 0.125 0.484375
vt 0.140625 0.484375
vt 0.171875 0.484375
vt 0.171875 0.5
vt 0.15625 0.5
vt 0.15625 0.484375
vt 0 0.671875
vt 0.171875 0.671875
vt 0.171875 0.6875
vt 0 0.6875
vt 0.359375 0.671875
vt 0.359375 0.6875
vt 0.1875 0.6875
vt 0.1875 0.671875
vt 0.171875 0.640625
vt 0.171875 0.65625
vt 0 0.65625
vt 0 0.640625
vt 0.359375 0.65625
vt 0.1875 0.65625
vt 0.1875 0.640625
vt 0.359375 0.640625
vn 0.9238795325112867 0 -0.3826834323650897
vn -0.9238795325112867 0 0.3826834323650897
vn 0 1 0
vn 0 -1 0
vn 0.3826834323650897 0 0.9238795325112867
vn -0.3826834323650897 0 -0.9238795325112867
usemtl m_9c70f490-2eaf-bbe1-0f79-94e6334b05ed
f 34/97/25 33/98/25 35/99/25 36/100/25
f 39/101/26 37/102/26 38/103/26 40/104/26
f 37/105/27 33/106/27 34/107/27 38/108/27
f 36/109/28 35/110/28 39/111/28 40/112/28
f 35/113/29 33/114/29 37/115/29 39/116/29
f 38/117/30 34/118/30 36/119/30 40/120/30
o mesh
v 0.10958963185383175 0.0625 -0.5200993071430263
v 0.08567191733101365 0.0625 -0.5778417779249818
v 0.10958963185383175 0 -0.5200993071430263
v 0.08567191733101365 0 -0.5778417779249818
v -0.4678350759657225 0.0625 -0.28092216191484526
v -0.4917527904885406 0.0625 -0.3386646326968007
v -0.4678350759657225 0 -0.28092216191484526
v -0.4917527904885406 0 -0.3386646326968007
vt 0.203125 0.5
vt 0.1875 0.5
vt 0.1875 0.484375
vt 0.203125 0.484375
vt 0.234375 0.484375
vt 0.234375 0.5
vt 0.21875 0.5
vt 0.21875 0.484375
vt 0.375 0.609375
vt 0.53125 0.609375
vt 0.53125 0.625
vt 0.375 0.625
vt 0.15625 0.578125
vt 0.15625 0.59375
vt 0 0.59375
vt 0 0.578125
vt 0.328125 0.578125
vt 0.328125 0.59375
vt 0.171875 0.59375
vt 0.171875 0.578125
vt 0.5 0.59375
vt 0.34375 0.59375
vt 0.34375 0.578125
vt 0.5 0.578125
vn 0.9238795325112867 0 -0.3826834323650897
vn -0.9238795325112867 0 0.3826834323650897
vn 0 1 0
vn 0 -1 0
vn 0.3826834323650897 0 0.9238795325112867
vn -0.3826834323650897 0 -0.9238795325112867
usemtl m_9c70f490-2eaf-bbe1-0f79-94e6334b05ed
f 42/121/31 41/122/31 43/123/31 44/124/31
f 47/125/32 45/126/32 46/127/32 48/128/32
f 45/129/33 41/130/33 42/131/33 46/132/33
f 44/133/34 43/134/34 47/135/34 48/136/34
f 43/137/35 41/138/35 45/139/35 47/140/35
f 46/141/36 42/142/36 44/143/36 48/144/36
o mesh
v 0.07576487559469441 0.0625 -0.4384391218382529
v 0.05184716107187631 0.0625 -0.49618159262020833
v 0.07576487559469441 0 -0.4384391218382529
v 0.05184716107187631 0 -0.49618159262020833
v -0.5594023030068151 0.0625 -0.17534426208725373
v -0.5833200175296334 0.0625 -0.23308673286920917
v -0.5594023030068151 0 -0.17534426208725373
v -0.5833200175296334 0 -0.23308673286920917
vt 0.265625 0.5
vt 0.25 0.5
vt 0.25 0.484375
vt 0.265625 0.484375
vt 0.296875 0.484375
vt 0.296875 0.5
vt 0.28125 0.5
vt 0.28125 0.484375
vt 0 0.609375
vt 0.171875 0.609375
vt 0.171875 0.625
vt 0 0.625
vt 0.359375 0.609375
vt 0.359375 0.625
vt 0.1875 0.625
vt 0.1875 0.609375
vt 0.546875 0.671875
vt 0.546875 0.6875
vt 0.375 0.6875
vt 0.375 0.671875
vt 0.546875 0.65625
vt 0.375 0.65625
vt 0.375 0.640625
vt 0.546875 0.640625
vn 0.9238795325112867 0 -0.3826834323650897
vn -0.9238795325112867 0 0.3826834323650897
vn 0 1 0
vn 0 -1 0
vn 0.3826834323650897 0 0.9238795325112867
vn -0.3826834323650897 0 -0.9238795325112867
usemtl m_9c70f490-2eaf-bbe1-0f79-94e6334b05ed
f 50/145/37 49/146/37 51/147/37 52/148/37
f 55/149/38 53/150/38 54/151/38 56/152/38
f 53/153/39 49/154/39 50/155/39 54/156/39
f 52/157/40 51/158/40 55/159/40 56/160/40
f 51/161/41 49/162/41 53/163/41 55/164/41
f 54/165/42 50/166/42 52/167/42 56/168/42
o mesh
v 0.041940119335557025 0.0625 -0.35677893653347936
v 0.018022404812738924 0.0625 -0.41452140731543485
v 0.041940119335557025 0 -0.35677893653347936
v 0.018022404812738924 0 -0.41452140731543485
v -0.6509695300479079 0.0625 -0.06976636225966207
v -0.6748872445707261 0.0625 -0.1275088330416175
v -0.6509695300479079 0 -0.06976636225966207
v -0.6748872445707261 0 -0.1275088330416175
vt 0.328125 0.5
vt 0.3125 0.5
vt 0.3125 0.484375
vt 0.328125 0.484375
vt 0.359375 0.484375
vt 0.359375 0.5
vt 0.34375 0.5
vt 0.34375 0.484375
vt 0.28125 0.953125
vt 0.46875 0.953125
vt 0.46875 0.96875
vt 0.28125 0.96875
vt 0.46875 0.921875
vt 0.46875 0.9375
vt 0.28125 0.9375
vt 0.28125 0.921875
vt 0.46875 0.890625
vt 0.46875 0.90625
vt 0.28125 0.90625
vt 0.28125 0.890625
vt 0.40625 0.71875
vt 0.21875 0.71875
vt 0.21875 0.703125
vt 0.40625 0.703125
vn 0.9238795325112867 0 -0.3826834323650897
vn -0.9238795325112867 0 0.3826834323650897
vn 0 1 0
vn 0 -1 0
vn 0.3826834323650897 0 0.9238795325112867
vn -0.3826834323650897 0 -0.9238795325112867
usemtl m_9c70f490-2eaf-bbe1-0f79-94e6334b05ed
f 58/169/43 57/170/43 59/171/43 60/172/43
f 63/173/44 61/174/44 62/175/44 64/176/44
f 61/177/45 57/178/45 58/179/45 62/180/45
f 60/181/46 59/182/46 63/183/46 64/184/46
f 59/185/47 57/186/47 61/187/47 63/188/47
f 62/189/48 58/190/48 60/191/48 64/192/48
o mesh
v 0.008115363076419801 0.0625 -0.2751187512287059
v -0.0158023514463983 0.0625 -0.33286122201066126
v 0.008115363076419801 0 -0.2751187512287059
v -0.0158023514463983 0 -0.33286122201066126
v -0.7425367570890007 0.0625 0.03581153756792957
v -0.7664544716118188 0.0625 -0.021930933214025866
v -0.7425367570890007 0 0.03581153756792957
v -0.7664544716118188 0 -0.021930933214025866
vt 0.390625 0.5
vt 0.375 0.5
vt 0.375 0.484375
vt 0.390625 0.484375
vt 0.421875 0.484375
vt 0.421875 0.5
vt 0.40625 0.5
vt 0.40625 0.484375
vt 0.21875 0.734375
vt 0.421875 0.734375
vt 0.421875 0.75
vt 0.21875 0.75
vt 0.453125 0.765625
vt 0.453125 0.78125
vt 0.25 0.78125
vt 0.25 0.765625
vt 0.203125 0.703125
vt 0.203125 0.71875
vt 0 0.71875
vt 0 0.703125
vt 0.484375 1
vt 0.28125 1
vt 0.28125 0.984375
vt 0.484375 0.984375
vn 0.9238795325112867 0 -0.3826834323650897
vn -0.9238795325112867 0 0.3826834323650897
vn 0 1 0
vn 0 -1 0
vn 0.3826834323650897 0 0.9238795325112867
vn -0.3826834323650897 0 -0.9238795325112867
usemtl m_9c70f490-2eaf-bbe1-0f79-94e6334b05ed
f 66/193/49 65/194/49 67/195/49 68/196/49
f 71/197/50 69/198/50 70/199/50 72/200/50
f 69/201/51 65/202/51 66/203/51 70/204/51
f 68/205/52 67/206/52 71/207/52 72/208/52
f 67/209/53 65/210/53 69/211/53 71/212/53
f 70/213/54 66/214/54 68/215/54 72/216/54
o mesh
v -0.025709393182717477 0.0625 -0.19345856592393235
v -0.04962710770553558 0.0625 -0.2512010367058878
v -0.025709393182717477 0 -0.19345856592393235
v -0.04962710770553558 0 -0.2512010367058878
v -0.19893680552858373 0.0625 -0.12170542235547802
v -0.22285452005140183 0.0625 -0.17944789313743342
v -0.19893680552858373 0 -0.12170542235547802
v -0.22285452005140183 0 -0.17944789313743342
vt 0.453125 0.5
vt 0.4375 0.5
vt 0.4375 0.484375
vt 0.453125 0.484375
vt 0.484375 0.484375
vt 0.484375 0.5
vt 0.46875 0.5
vt 0.46875 0.484375
vt 0.46875 0.859375
vt 0.515625 0.859375
vt 0.515625 0.875
vt 0.46875 0.875
vt 0.515625 0.828125
vt 0.515625 0.84375
vt 0.46875 0.84375
vt 0.46875 0.828125
vt 0.234375 0.515625
vt 0.234375 0.53125
vt 0.1875 0.53125
vt 0.1875 0.515625
vt 0.515625 0.8125
vt 0.46875 0.8125
vt 0.46875 0.796875
vt 0.515625 0.796875
vn 0.9238795325112867 0 -0.3826834323650897
vn -0.9238795325112867 0 0.3826834323650897
vn 0 1 0
vn 0 -1 0
vn 0.3826834323650897 0 0.9238795325112867
vn -0.3826834323650897 0 -0.9238795325112867
usemtl m_9c70f490-2eaf-bbe1-0f79-94e6334b05ed
f 74/217/55 73/218/55 75/219/55 76/220/55
f 79/221/56 77/222/56 78/223/56 80/224/56
f 77/225/57 73/226/57 74/227/57 78/228/57
f 76/229/58 75/230/58 79/231/58 80/232/58
f 75/233/59 73/234/59 77/235/59 79/236/59
f 78/237/60 74/238/60 76/239/60 80/240/60
o mesh
v -0.05953414944185488 0.0625 -0.1117983806191588
v -0.08345186396467298 0.0625 -0.16954085140111422
v -0.05953414944185488 0 -0.1117983806191588
v -0.08345186396467298 0 -0.16954085140111422
v -0.17501909100576574 0.0625 -0.06396295157352258
v -0.19893680552858384 0.0625 -0.121705422355478
v -0.17501909100576574 0 -0.06396295157352258
v -0.19893680552858384 0 -0.121705422355478
vt 0.515625 0.5
vt 0.5 0.5
vt 0.5 0.484375
vt 0.515625 0.484375
vt 0.53125 0.921875
vt 0.53125 0.9375
vt 0.515625 0.9375
vt 0.515625 0.921875
vt 0.390625 0.515625
vt 0.421875 0.515625
vt 0.421875 0.53125
vt 0.390625 0.53125
vt 0.46875 0.515625
vt 0.46875 0.53125
vt 0.4375 0.53125
vt 0.4375 0.515625
vt 0.5 0.546875
vt 0.5 0.5625
vt 0.46875 0.5625
vt 0.46875 0.546875
vt 0.515625 0.96875
vt 0.484375 0.96875
vt 0.484375 0.953125
vt 0.515625 0.953125
vn 0.9238795325112867 0 -0.3826834323650897
vn -0.9238795325112867 0 0.3826834323650897
vn 0 1 0
vn 0 -1 0
vn 0.3826834323650897 0 0.9238795325112867
vn -0.3826834323650897 0 -0.9238795325112867
usemtl m_9c70f490-2eaf-bbe1-0f79-94e6334b05ed
f 82/241/61 81/242/61 83/243/61 84/244/61
f 87/245/62 85/246/62 86/247/62 88/248/62
f 85/249/63 81/250/63 82/251/63 86/252/63
f 84/253/64 83/254/64 87/255/64 88/256/64
f 83/257/65 81/258/65 85/259/65 87/260/65
f 86/261/66 82/262/66 84/263/66 88/264/66
o mesh
v -0.09335890570099217 0.0625 -0.030138195314385257
v -0.11727662022381029 0.0625 -0.08788066609634068
v -0.09335890570099217 0 -0.030138195314385257
v -0.11727662022381029 0 -0.08788066609634068
v -0.1511013764829476 0.0625 -0.006220480791567146
v -0.1750190910057657 0.0625 -0.06396295157352257
v -0.1511013764829476 0 -0.006220480791567146
v -0.1750190910057657 0 -0.06396295157352257
vt 0.53125 0.90625
vt 0.515625 0.90625
vt 0.515625 0.890625
vt 0.53125 0.890625
vt 0.53125 0.765625
vt 0.53125 0.78125
vt 0.515625 0.78125
vt 0.515625 0.765625
vt 0.515625 0.578125
vt 0.53125 0.578125
vt 0.53125 0.59375
vt 0.515625 0.59375
vt 0.53125 0.546875
vt 0.53125 0.5625
vt 0.515625 0.5625
vt 0.515625 0.546875
vt 0.53125 0.515625
vt 0.53125 0.53125
vt 0.515625 0.53125
vt 0.515625 0.515625
vt 0.015625 0.46875
vt 0 0.46875
vt 0 0.453125
vt 0.015625 0.453125
vn 0.9238795325112867 0 -0.3826834323650897
vn -0.9238795325112867 0 0.3826834323650897
vn 0 1 0
vn 0 -1 0
vn 0.3826834323650897 0 0.9238795325112867
vn -0.3826834323650897 0 -0.9238795325112867
usemtl m_9c70f490-2eaf-bbe1-0f79-94e6334b05ed
f 90/265/67 89/266/67 91/267/67 92/268/67
f 95/269/68 93/270/68 94/271/68 96/272/68
f 93/273/69 89/274/69 90/275/69 94/276/69
f 92/277/70 91/278/70 95/279/70 96/280/70
f 91/281/71 89/282/71 93/283/71 95/284/71
f 94/285/72 90/286/72 92/287/72 96/288/72
o mesh
v -0.3721642178744501 0.0625 -0.04995227878702369
v -0.3960819323972682 0.0625 -0.10769474956897912
v -0.3721642178744501 0 -0.04995227878702369
v -0.3960819323972682 0 -0.10769474956897912
v -0.7763615133481381 0.0625 0.11747172287270308
v -0.8002792278709562 0.0625 0.05972925209074765
v -0.7763615133481381 0 0.11747172287270308
v -0.8002792278709562 0 0.05972925209074765
vt 0.546875 1
vt 0.53125 1
vt 0.53125 0.984375
vt 0.546875 0.984375
vt 0.046875 0.453125
vt 0.046875 0.46875
vt 0.03125 0.46875
vt 0.03125 0.453125
vt 0.421875 0.703125
vt 0.53125 0.703125
vt 0.53125 0.71875
vt 0.421875 0.71875
vt 0.109375 0.546875
vt 0.109375 0.5625
vt 0 0.5625
vt 0 0.546875
vt 0.234375 0.546875
vt 0.234375 0.5625
vt 0.125 0.5625
vt 0.125 0.546875
vt 0.359375 0.5625
vt 0.25 0.5625
vt 0.25 0.546875
vt 0.359375 0.546875
vn 0.9238795325112867 0 -0.3826834323650897
vn -0.9238795325112867 0 0.3826834323650897
vn 0 1 0
vn 0 -1 0
vn 0.3826834323650897 0 0.9238795325112867
vn -0.3826834323650897 0 -0.9238795325112867
usemtl m_9c70f490-2eaf-bbe1-0f79-94e6334b05ed
f 98/289/73 97/290/73 99/291/73 100/292/73
f 103/293/74 101/294/74 102/295/74 104/296/74
f 101/297/75 97/298/75 98/299/75 102/300/75
f 100/301/76 99/302/76 103/303/76 104/304/76
f 99/305/77 97/306/77 101/307/77 103/308/77
f 102/309/78 98/310/78 100/311/78 104/312/78
o mesh
v -0.4637314449155428 0.0625 0.05562562104056797
v -0.4876491594383609 0.0625 -0.0021168497413874415
v -0.4637314449155428 0 0.05562562104056797
v -0.4876491594383609 0 -0.0021168497413874415
v -0.7524437988253199 0.0625 0.1752141936546585
v -0.7763615133481381 0.0625 0.11747172287270308
v -0.7524437988253199 0 0.1752141936546585
v -0.7763615133481381 0 0.11747172287270308
vt 0.546875 0.96875
vt 0.53125 0.96875
vt 0.53125 0.953125
vt 0.546875 0.953125
vt 0.078125 0.453125
vt 0.078125 0.46875
vt 0.0625 0.46875
vt 0.0625 0.453125
vt 0.4375 0.734375
vt 0.515625 0.734375
vt 0.515625 0.75
vt 0.4375 0.75
vt 0.453125 0.546875
vt 0.453125 0.5625
vt 0.375 0.5625
vt 0.375 0.546875
vt 0.078125 0.515625
vt 0.078125 0.53125
vt 0 0.53125
vt 0 0.515625
vt 0.171875 0.53125
vt 0.09375 0.53125
vt 0.09375 0.515625
vt 0.171875 0.515625
vn 0.9238795325112867 0 -0.3826834323650897
vn -0.9238795325112867 0 0.3826834323650897
vn 0 1 0
vn 0 -1 0
vn 0.3826834323650897 0 0.9238795325112867
vn -0.3826834323650897 0 -0.9238795325112867
usemtl m_9c70f490-2eaf-bbe1-0f79-94e6334b05ed
f 106/313/79 105/314/79 107/315/79 108/316/79
f 111/317/80 109/318/80 110/319/80 112/320/80
f 109/321/81 105/322/81 106/323/81 110/324/81
f 108/325/82 107/326/82 111/327/82 112/328/82
f 107/329/83 105/330/83 109/331/83 111/332/83
f 110/333/84 106/334/84 108/335/84 112/336/84